<svg width="80" height="80" viewBox="0 0 80 80" fill="none" xmlns="http://www.w3.org/2000/svg">
<path d="M41.6287 25.7996C41.2339 25.8246 40.8391 25.8496 40.4443 25.8496C30.7719 25.8496 24.3564 25.8747 14.684 25.8246C13.7463 25.8246 13.4749 26.0498 13.4749 27.0258C13.5243 31.0296 13.5243 35.0334 13.4749 39.0622C13.4749 39.8129 13.697 39.9881 14.4125 39.9881C20.4825 39.9631 23.3201 39.9881 29.3901 39.9381C30.2784 39.9381 30.4511 40.1883 30.4511 41.0391C30.4264 48.9466 30.4511 56.8792 30.4017 64.7867C30.4017 65.6125 30.6238 65.8377 31.4381 65.8127C34.9419 65.7627 38.421 65.7627 41.9248 65.8127C42.6157 65.8127 42.8131 65.6125 42.7884 64.9119C42.7391 62.5846 42.7637 60.2824 42.7884 57.9552C42.7884 57.5548 42.8624 57.1795 42.8871 56.7791C43.3066 56.8292 43.3313 57.2045 43.4793 57.4798C45.626 61.7338 48.3402 65.5625 51.77 68.8406C53.5219 70.5172 55.4219 72.0437 57.4452 73.3949C57.7166 73.5701 58.1607 73.6452 58.1114 74.1206C57.6672 74.1457 57.1984 74.1957 56.7543 74.1957C37.508 74.1957 29.4888 74.1957 10.2425 74.1957C2.74142 74.3959 0.00253519 73.0696 0.00253519 67.114C0.00253519 44.4424 0.00253519 37.8361 0.00253519 15.1644C-0.0961635 7.40705 2.69207 6.95662 7.47896 6.95662C31.29 6.98165 42.9611 6.98165 60.2581 6.98165C60.3815 6.98165 60.7516 6.98165 60.875 6.98165C60.8256 7.55719 60.0607 7.65729 59.6906 7.88251C56.2114 9.90944 53.0778 12.3618 50.3142 15.3146C46.8597 19.0181 44.1949 19.994 42.2949 24.6985C42.1222 25.1239 41.9988 25.5243 41.6287 25.7996Z" fill="#154889"/>
<path d="M58.0373 74.2458C52.905 70.9176 48.6116 66.7136 45.3299 61.4836C44.3922 60.0072 43.5533 58.4807 42.813 56.8792C42.6403 55.7281 42.739 54.552 42.739 53.4009C42.7143 49.2469 42.7637 45.118 42.7143 40.9641C42.7143 40.2133 42.9117 40.0131 43.652 40.0382C47.2792 40.0632 50.9063 40.0882 54.5335 40.0382C55.3231 40.0382 55.4958 40.2884 55.5205 41.0391C55.9153 52.1747 64.6995 61.884 75.6304 63.3604C76.7654 63.5105 77.1602 63.5856 78.2952 63.5356C79.6523 63.4855 79.9238 63.8859 79.8744 64.9619C79.8497 69.4912 79.8497 71.9185 79.8744 76.4729C79.8744 79.1755 79.677 79.9512 76.8147 79.9262C71.5097 80.3516 66.6488 78.9252 61.0476 75.9974C60.036 75.4719 59.0736 74.7963 58.0373 74.2458Z" fill="#E8C830"/>
<path d="M41.6287 25.7996C45.0831 16.4407 51.1284 9.38394 59.6412 4.4042C59.9866 4.204 60.3321 4.02884 60.6528 3.80362C62.7502 2.87774 63.219 2.47736 65.267 1.75167C68.2773 0.475453 72.9902 0.0500477 77.8758 0C79.2575 0 80.0471 0.500478 79.9978 2.57746C79.9484 7.10677 79.9238 9.28385 79.9731 13.8382C79.9731 15.4898 79.4549 15.8901 77.8017 15.8901C70.2266 16.0153 65.2917 19.1182 60.5295 25.0739C60.2334 25.4493 59.9866 25.8496 59.3698 25.8246C53.4478 25.8246 47.5506 25.7996 41.6287 25.7996Z" fill="#E8C830"/>
</svg>
