<svg width="564" height="143" viewBox="0 0 564 143" fill="none" xmlns="http://www.w3.org/2000/svg">
<path d="M194.8 24.4H170.6C170.6 21.5 170.9 18.5 171.4 15.7C171.9 12.8 172.7 9.80002 173.7 6.80002H243C243 9.70002 242.7 12.6 242.2 15.5C241.7 18.3 240.9 21.3 239.9 24.5H215.7L200.9 109.1C197 109.7 193.5 110 190.2 110C186.8 110 183.4 109.7 180 109.1L194.8 24.4Z" fill="#154889"/>
<path d="M292.4 89.7C293.4 92.2 294.3 94.9 294.9 98C295.5 101 295.9 104 296.1 107C294 107.9 291.8 108.5 289.4 109.1C287 109.6 284.7 110 282.5 110.2C280.3 110.4 278.2 110.6 276.2 110.7C274.3 110.8 272.7 110.8 271.6 110.8C264.7 110.8 258.6 109.9 253.5 108C248.3 106.1 244 103.4 240.6 100C237.1 96.5 234.6 92.4 232.8 87.6C231.1 82.8 230.2 77.5 230.2 71.6C230.2 62.4 231.6 53.8 234.3 45.7C237 37.6 240.9 30.6 245.9 24.6C250.9 18.6 256.9 13.8 263.9 10.4C270.9 6.90001 278.7 5.20001 287.2 5.20001C291.7 5.20001 295.6 5.50002 299.1 6.00002C302.6 6.50002 306.1 7.60002 309.8 9.30002C309.2 12.2 308.5 15 307.6 17.6C306.7 20.2 305.4 23 303.8 26C300.6 24.8 297.8 24 295.3 23.6C292.9 23.2 290.6 23 288.4 23C282 23 276.6 24.4 272 27.1C267.4 29.9 263.7 33.4 260.8 37.8C257.9 42.2 255.8 47.2 254.4 52.8C253 58.4 252.3 64 252.3 69.7C252.3 77.5 254.3 83.3 258.3 87.1C262.3 90.9 268.1 92.8 275.6 92.8C277 92.8 278.3 92.8 279.6 92.7C280.8 92.6 282.1 92.5 283.3 92.3C284.5 92.1 285.9 91.8 287.3 91.4C289 90.8 290.6 90.3 292.4 89.7Z" fill="#154889"/>
<path d="M317.7 6.80002H373.7C373.7 7.20002 373.7 7.60001 373.8 7.90001C373.8 8.30001 373.9 8.70002 373.9 9.00002C373.9 11.5 373.6 14 373 16.5C372.4 19.1 371.6 21.7 370.6 24.3H335.3L331.5 46.5H359.5C359.5 52.2 358.5 58.1 356.4 64.3H328.4L323.6 91.3H359.9C359.9 91.7 359.9 92 360 92.4C360 92.7 360.1 93.1 360.1 93.5C360.1 96.1 359.8 98.6 359.2 101.1C358.6 103.6 357.8 106.2 357 109H300L317.7 6.80002Z" fill="#154889"/>
<path d="M408.3 58.6C408.4 61.5 408.2 64.5 407.6 67.5C407 70.5 406.3 73.4 405.3 76.1H369.7C369.7 73.3 370 70.4 370.5 67.6C371 64.8 371.8 61.8 372.7 58.6H408.3Z" fill="#154889"/>
<path d="M450.3 6.8C452.2 6.5 454.2 6.3 456.3 6.2C458.4 6.1 460.4 6 462.3 6C466.2 6 470.1 6.29999 474 6.89999L486.5 109.2C482.9 109.8 479.4 110.1 476.1 110.1C472.8 110.1 469.2 109.8 465.4 109.2L463.6 88.6H432.4L423.3 109.2C419.9 109.8 416.3 110.1 412.6 110.1C409 110.1 405.6 109.8 402.4 109.2L450.3 6.8ZM462.1 71.4L458.4 30.4L440.2 71.4H462.1Z" fill="#154889"/>
<path d="M503.8 6.5C505.9 6.3 507.8 6.09999 509.6 5.89999C511.4 5.69999 513.2 5.49999 514.9 5.39999C516.7 5.29999 518.4 5.20001 520.2 5.10001C522 5.10001 523.9 5 526 5C530.1 5 534.3 5.40001 538.8 6.10001C543.3 6.90001 547.3 8.29999 551 10.4C554.7 12.5 557.8 15.5 560.2 19.4C562.6 23.3 563.8 28.3 563.8 34.5C563.8 40.5 562.8 46 560.7 51.1C558.7 56.2 555.7 60.7 551.8 64.4C547.9 68.1 543.2 71.1 537.6 73.1C532 75.2 525.7 76.2 518.5 76.2C517 76.2 515.7 76.2 514.8 76.1C513.9 76.1 513 76 512.1 75.9L506.4 108.8C504.5 109.1 502.7 109.3 501 109.4C499.3 109.5 497.6 109.5 496 109.5C494.6 109.5 493 109.5 491.2 109.4C489.4 109.3 487.6 109.1 485.6 108.8L503.8 6.5ZM515.3 58.9C516.5 59.2 518.7 59.3 521.7 59.3C524 59.3 526.3 58.9 528.7 58.2C531.1 57.4 533.3 56.2 535.2 54.4C537.2 52.6 538.8 50.2 540.1 47.3C541.4 44.4 542 40.7 542 36.2C542 33.5 541.5 31.2 540.6 29.4C539.7 27.6 538.5 26.2 537 25.2C535.5 24.2 533.9 23.5 532.1 23.1C530.3 22.7 528.5 22.5 526.8 22.5C526 22.5 525.3 22.5 524.7 22.5C524 22.5 523 22.6 521.6 22.8L515.3 58.9Z" fill="#154889"/>
<path d="M166.3 124H163C163 123.7 163 123.5 163.1 123.2C163.1 122.9 163.2 122.6 163.3 122.4H171.9C171.9 122.7 171.9 123 171.8 123.2C171.7 123.5 171.7 123.7 171.6 124H168.3L166.2 135.8C165.9 135.8 165.5 135.9 165.2 135.9C165 135.9 164.9 135.9 164.7 135.9C164.5 135.9 164.4 135.9 164.3 135.9L166.3 124Z" fill="#154889"/>
<path d="M174.3 122.4C174.8 122.3 175.2 122.3 175.7 122.2C176.1 122.2 176.6 122.2 177 122.2C177.6 122.2 178.1 122.3 178.6 122.4C179.1 122.5 179.6 122.7 180 123C180.4 123.3 180.7 123.6 181 124C181.2 124.4 181.4 125 181.4 125.6C181.4 126.3 181.3 126.8 181.1 127.3C180.9 127.8 180.6 128.2 180.3 128.6C180 129 179.6 129.3 179.3 129.5C178.9 129.7 178.6 129.9 178.2 130.1L180.6 135.8C180.2 135.8 179.9 135.9 179.5 135.9C179.1 135.9 178.8 135.9 178.5 135.8L175.9 129.5L176.1 129.4C176.2 129.4 176.3 129.3 176.5 129.3C176.7 129.2 176.9 129.1 177.2 129C177.4 128.9 177.7 128.7 178 128.5C178.3 128.3 178.5 128.1 178.7 127.8C178.9 127.5 179.1 127.2 179.2 126.9C179.3 126.6 179.4 126.2 179.4 125.8C179.4 125.1 179.2 124.5 178.8 124.2C178.4 123.9 177.8 123.7 177 123.7C176.8 123.7 176.6 123.7 176.5 123.7C176.3 123.7 176.2 123.7 176 123.8L173.9 135.8C173.8 135.8 173.6 135.8 173.4 135.8C173.2 135.8 173.1 135.8 172.9 135.8C172.7 135.8 172.6 135.8 172.4 135.8C172.2 135.8 172.1 135.8 171.9 135.8L174.3 122.4Z" fill="#154889"/>
<path d="M185.1 122.4C185.3 122.4 185.4 122.4 185.6 122.3C185.8 122.3 185.9 122.3 186.1 122.3C186.3 122.3 186.4 122.3 186.6 122.3C186.8 122.3 186.9 122.3 187.1 122.4L184.7 135.8C184.5 135.8 184.4 135.8 184.2 135.9C184 135.9 183.9 135.9 183.7 135.9C183.5 135.9 183.4 135.9 183.2 135.9C183 135.9 182.9 135.9 182.8 135.8L185.1 122.4Z" fill="#154889"/>
<path d="M190.5 122.4C190.8 122.4 191.2 122.3 191.8 122.3C192.3 122.3 192.8 122.2 193.3 122.2C193.9 122.2 194.5 122.3 195 122.4C195.5 122.5 196 122.7 196.3 122.9C196.7 123.1 197 123.4 197.2 123.8C197.4 124.2 197.5 124.6 197.5 125.1C197.5 125.6 197.4 126 197.3 126.4C197.2 126.8 197 127.2 196.7 127.5C196.5 127.8 196.2 128.1 195.8 128.3C195.5 128.5 195.2 128.7 194.8 128.7C195.5 128.8 196 129.1 196.5 129.6C196.9 130.1 197.2 130.7 197.2 131.5C197.2 132.3 197 133 196.7 133.6C196.4 134.2 196 134.7 195.4 135C194.9 135.4 194.2 135.6 193.5 135.8C192.8 136 192 136.1 191.2 136.1C190.7 136.1 190.2 136.1 189.7 136C189.2 136 188.7 135.9 188.2 135.8L190.5 122.4ZM190.3 134.3C190.4 134.3 190.6 134.3 190.8 134.4C191 134.4 191.2 134.4 191.5 134.4C191.9 134.4 192.3 134.4 192.8 134.3C193.2 134.2 193.6 134.1 194 133.9C194.4 133.7 194.6 133.4 194.9 133C195.1 132.6 195.2 132.1 195.2 131.6C195.2 131.2 195.1 130.9 195 130.7C194.9 130.4 194.7 130.2 194.5 130.1C194.3 129.9 194 129.8 193.7 129.8C193.4 129.7 193 129.7 192.7 129.7H191.2L190.3 134.3ZM192.8 128C193.6 128 194.3 127.8 194.8 127.3C195.3 126.8 195.6 126.2 195.6 125.4C195.6 124.8 195.4 124.3 195 124.1C194.6 123.8 194.1 123.7 193.4 123.7C193.2 123.7 193 123.7 192.8 123.7C192.6 123.7 192.4 123.7 192.3 123.8L191.6 128H192.8Z" fill="#154889"/>
<path d="M201.3 122.4C201.5 122.4 201.6 122.4 201.8 122.3C202 122.2 202.1 122.3 202.3 122.3C202.5 122.3 202.6 122.3 202.8 122.3C203 122.3 203.1 122.3 203.3 122.4L202 130C201.9 130.9 201.8 131.6 201.8 132.2C201.8 133 202 133.5 202.3 133.8C202.6 134.1 203.2 134.3 204 134.3C204.5 134.3 205 134.2 205.4 134C205.8 133.8 206.1 133.5 206.4 133.2C206.7 132.8 206.9 132.4 207.1 131.8C207.3 131.3 207.4 130.6 207.5 129.9L208.8 122.3C209 122.3 209.1 122.3 209.3 122.2C209.5 122.2 209.6 122.2 209.8 122.2C209.9 122.2 210.1 122.2 210.3 122.2C210.5 122.2 210.6 122.2 210.8 122.3L209.4 130.4C209.2 131.3 209 132.1 208.8 132.8C208.5 133.5 208.2 134.1 207.8 134.5C207.4 135 206.8 135.3 206.2 135.6C205.6 135.8 204.8 136 203.9 136C202.6 136 201.7 135.7 201 135.1C200.4 134.5 200.1 133.5 200.1 132.3C200.1 132 200.1 131.7 200.2 131.4C200.2 131.1 200.3 130.7 200.3 130.4L201.3 122.4Z" fill="#154889"/>
<path d="M213.9 122.4C214 122.4 214.2 122.4 214.4 122.4C214.6 122.4 214.7 122.4 214.9 122.4C215.2 122.4 215.5 122.4 215.7 122.5L219.5 132.6L221.3 122.5C221.4 122.5 221.5 122.5 221.7 122.5C221.8 122.5 221.9 122.5 222.1 122.5H222.5L223.1 122.6L220.7 136C220.6 136 220.4 136 220.3 136C220.1 136 220 136 219.8 136C219.7 136 219.5 136 219.4 136C219.3 136 219.1 136 219 136L215.2 125.9L213.5 136C213.3 136 213 136.1 212.8 136.1H212.3L211.7 136L213.9 122.4Z" fill="#154889"/>
<path d="M229.1 122.4C229.3 122.4 229.5 122.4 229.7 122.4C229.9 122.4 230.1 122.4 230.3 122.4C230.5 122.4 230.7 122.4 230.9 122.4C231.1 122.4 231.3 122.4 231.4 122.4L233.2 135.8C232.8 135.8 232.5 135.9 232.1 135.9C231.8 135.9 231.5 135.9 231.2 135.8L230.8 132.6H226.3L224.9 135.8C224.6 135.8 224.3 135.9 223.9 135.9C223.7 135.9 223.6 135.9 223.4 135.9C223.2 135.9 223.1 135.9 222.9 135.9L229.1 122.4ZM230.7 131L229.9 124.5L227.1 131H230.7Z" fill="#154889"/>
<path d="M237.7 122.4C237.8 122.4 238 122.4 238.2 122.3C238.4 122.2 238.5 122.3 238.7 122.3C238.9 122.3 239 122.3 239.2 122.3C239.3 122.3 239.5 122.3 239.6 122.4L237.5 134.2H242.5C242.5 134.5 242.4 134.8 242.4 135.1C242.4 135.4 242.3 135.6 242.2 135.9H235.3L237.7 122.4Z" fill="#154889"/>
<path d="M255.5 122.4C255.7 122.4 255.9 122.4 256.2 122.3C256.4 122.3 256.7 122.3 257 122.2C257.3 122.2 257.5 122.2 257.8 122.2C258 122.2 258.3 122.2 258.5 122.2C259.5 122.2 260.4 122.3 261.2 122.6C262 122.9 262.6 123.2 263.1 123.7C263.6 124.2 263.9 124.8 264.2 125.4C264.4 126.1 264.5 126.8 264.5 127.6C264.5 128.8 264.3 129.9 264 130.9C263.7 131.9 263.1 132.8 262.5 133.6C261.8 134.4 261 135 260 135.4C259 135.8 257.8 136 256.5 136C255.8 136 255.2 136 254.7 135.9C254.1 135.9 253.7 135.8 253.3 135.7L255.5 122.4ZM255.3 134.2C255.5 134.2 255.7 134.2 256 134.3C256.3 134.3 256.6 134.3 256.9 134.3C257.8 134.3 258.5 134.1 259.2 133.8C259.9 133.5 260.5 133 260.9 132.5C261.4 131.9 261.7 131.2 262 130.5C262.2 129.7 262.4 128.9 262.4 127.9C262.4 126.6 262.1 125.6 261.5 124.9C260.9 124.2 259.9 123.9 258.5 123.9C258.3 123.9 258 123.9 257.8 123.9C257.6 123.9 257.4 123.9 257.2 124L255.3 134.2Z" fill="#154889"/>
<path d="M268.3 122.4H275.4C275.4 123 275.3 123.5 275.1 124.1H269.9L269.2 127.9H273.3C273.3 128.5 273.2 129 273 129.6H268.9C268.8 130.4 268.6 131.1 268.5 131.9C268.4 132.7 268.2 133.4 268.1 134.2H273.4C273.4 134.5 273.3 134.8 273.3 135C273.3 135.2 273.2 135.5 273.1 135.8H265.9L268.3 122.4Z" fill="#154889"/>
<path d="M292.8 133.8C293 134.2 293.2 134.8 293.2 135.4C293 135.5 292.7 135.6 292.4 135.7C292.1 135.8 291.8 135.8 291.5 135.9C291.2 136 290.9 136 290.6 136C290.3 136 290 136 289.8 136C288.2 136 286.9 135.5 286 134.6C285.1 133.7 284.7 132.4 284.7 130.8C284.7 129.7 284.9 128.6 285.2 127.5C285.5 126.5 286 125.5 286.6 124.7C287.2 123.9 288 123.3 288.9 122.8C289.8 122.3 290.9 122.1 292.1 122.1C292.8 122.1 293.3 122.1 293.8 122.2C294.3 122.3 294.7 122.4 295 122.5C294.9 122.8 294.9 123 294.8 123.3C294.7 123.5 294.6 123.8 294.4 124.1C294 124 293.7 123.9 293.3 123.8C293 123.7 292.6 123.7 292.1 123.7C291.2 123.7 290.4 123.9 289.7 124.3C289 124.7 288.5 125.2 288 125.8C287.6 126.4 287.3 127.2 287 128C286.8 128.8 286.7 129.7 286.7 130.5C286.7 131.7 287 132.6 287.6 133.2C288.2 133.8 289 134.1 290.2 134.1C290.7 134.1 291.1 134.1 291.5 134C292 134.1 292.4 134 292.8 133.8Z" fill="#154889"/>
<path d="M300.1 136C299.4 136 298.7 135.9 298.1 135.6C297.5 135.4 297.1 135 296.7 134.6C296.3 134.2 296.1 133.7 295.9 133C295.7 132.4 295.6 131.7 295.6 131C295.6 129.9 295.7 128.7 296 127.7C296.3 126.6 296.7 125.7 297.3 124.8C297.9 124 298.6 123.3 299.4 122.8C300.2 122.3 301.2 122 302.3 122C303 122 303.7 122.1 304.3 122.4C304.9 122.6 305.3 123 305.7 123.4C306.1 123.8 306.3 124.4 306.5 125C306.7 125.6 306.8 126.3 306.8 127C306.8 128.2 306.6 129.3 306.3 130.4C306 131.5 305.6 132.4 305 133.2C304.4 134 303.7 134.7 302.9 135.2C302.1 135.8 301.1 136 300.1 136ZM300.3 134.4C301 134.4 301.7 134.2 302.3 133.8C302.9 133.4 303.3 132.8 303.7 132.1C304.1 131.4 304.4 130.6 304.6 129.8C304.8 128.9 304.9 128.1 304.9 127.2C304.9 126.2 304.7 125.4 304.3 124.8C303.9 124.2 303.2 123.9 302.3 123.9C301.6 123.9 300.9 124.1 300.3 124.5C299.7 124.9 299.2 125.5 298.9 126.2C298.5 126.9 298.2 127.7 298 128.5C297.8 129.4 297.7 130.2 297.7 131.1C297.7 132.1 297.9 133 298.3 133.5C298.7 134.1 299.4 134.4 300.3 134.4Z" fill="#154889"/>
<path d="M310.8 122.4C310.9 122.4 311.1 122.4 311.3 122.4C311.5 122.4 311.6 122.4 311.8 122.4C312.1 122.4 312.4 122.4 312.6 122.5L316.4 132.6L318.2 122.5C318.3 122.5 318.4 122.5 318.6 122.5C318.7 122.5 318.8 122.5 319 122.5H319.4L320 122.6L317.6 136C317.5 136 317.3 136 317.2 136C317 136 316.9 136 316.7 136C316.6 136 316.4 136 316.3 136C316.2 136 316 136 315.9 136L312.1 125.9L310.4 136C310.2 136 309.9 136.1 309.7 136.1H309.2L308.6 136L310.8 122.4Z" fill="#154889"/>
<path d="M325.1 124H321.8C321.8 123.7 321.8 123.5 321.9 123.2C321.9 122.9 322 122.6 322.1 122.4H330.7C330.7 122.7 330.7 123 330.6 123.2C330.5 123.5 330.5 123.7 330.4 124H327.1L325 135.8C324.7 135.8 324.3 135.9 324 135.9C323.8 135.9 323.7 135.9 323.5 135.9C323.3 135.9 323.2 135.9 323.1 135.9L325.1 124Z" fill="#154889"/>
<path d="M334 122.4C334.2 122.4 334.4 122.4 334.6 122.4C334.8 122.4 335 122.4 335.2 122.4C335.4 122.4 335.6 122.4 335.8 122.4C336 122.4 336.2 122.4 336.3 122.4L338.1 135.8C337.7 135.8 337.4 135.9 337 135.9C336.7 135.9 336.4 135.9 336.1 135.8L335.7 132.6H331.2L329.8 135.8C329.5 135.8 329.2 135.9 328.8 135.9C328.6 135.9 328.5 135.9 328.3 135.9C328.1 135.9 328 135.9 327.8 135.9L334 122.4ZM335.6 131L334.8 124.5L332 131H335.6Z" fill="#154889"/>
<path d="M340 133.8C340.5 134 340.9 134.1 341.4 134.2C341.8 134.3 342.3 134.4 342.9 134.4C344 134.4 344.8 134.2 345.3 133.7C345.9 133.2 346.2 132.6 346.2 131.8C346.2 131.3 346 130.9 345.7 130.5C345.4 130.1 344.9 129.8 344.2 129.4C343.8 129.2 343.4 128.9 343.1 128.7C342.8 128.5 342.5 128.2 342.2 128C342 127.7 341.8 127.4 341.6 127.1C341.5 126.8 341.4 126.4 341.4 126C341.4 125.4 341.5 124.9 341.7 124.4C341.9 123.9 342.2 123.5 342.7 123.2C343.1 122.9 343.6 122.6 344.2 122.4C344.8 122.2 345.4 122.1 346.2 122.1C346.9 122.1 347.5 122.2 347.9 122.2C348.4 122.3 348.8 122.4 349.3 122.6C349.3 122.9 349.2 123.1 349.1 123.4C349 123.7 348.9 123.9 348.7 124.2C348.4 124.1 348 123.9 347.6 123.8C347.2 123.7 346.7 123.6 346.2 123.6C345.8 123.6 345.4 123.6 345.1 123.7C344.8 123.8 344.5 123.9 344.2 124C344 124.1 343.8 124.3 343.6 124.6C343.5 124.8 343.4 125.1 343.4 125.5C343.4 126 343.5 126.4 343.8 126.7C344.1 127 344.6 127.4 345.2 127.7C345.7 127.9 346.1 128.2 346.4 128.4C346.8 128.6 347.1 128.9 347.3 129.2C347.6 129.5 347.8 129.8 347.9 130.1C348 130.4 348.1 130.8 348.1 131.3C348.1 132 348 132.6 347.7 133.2C347.4 133.8 347.1 134.2 346.6 134.6C346.1 135 345.6 135.3 344.9 135.5C344.2 135.7 343.5 135.8 342.6 135.8C341.9 135.8 341.3 135.7 340.8 135.6C340.3 135.5 339.7 135.4 339.3 135.2C339.5 134.9 339.7 134.3 340 133.8Z" fill="#154889"/>
<path d="M361.1 122.4C361.3 122.4 361.5 122.4 361.8 122.3C362 122.3 362.3 122.3 362.6 122.2C362.9 122.2 363.1 122.2 363.4 122.2C363.6 122.2 363.9 122.2 364.1 122.2C365.1 122.2 366 122.3 366.8 122.6C367.6 122.9 368.2 123.2 368.7 123.7C369.2 124.2 369.5 124.8 369.8 125.4C370 126.1 370.1 126.8 370.1 127.6C370.1 128.8 369.9 129.9 369.6 130.9C369.3 131.9 368.7 132.8 368.1 133.6C367.4 134.4 366.6 135 365.6 135.4C364.6 135.8 363.4 136 362.1 136C361.4 136 360.8 136 360.3 135.9C359.7 135.9 359.3 135.8 358.9 135.7L361.1 122.4ZM361 134.2C361.2 134.2 361.4 134.2 361.7 134.3C362 134.3 362.3 134.3 362.6 134.3C363.5 134.3 364.2 134.1 364.9 133.8C365.6 133.5 366.2 133 366.6 132.5C367.1 131.9 367.4 131.2 367.7 130.5C367.9 129.7 368.1 128.9 368.1 127.9C368.1 126.6 367.8 125.6 367.2 124.9C366.6 124.2 365.6 123.9 364.2 123.9C364 123.9 363.7 123.9 363.5 123.9C363.3 123.9 363.1 123.9 362.9 124L361 134.2Z" fill="#154889"/>
<path d="M376.4 136C375.7 136 375 135.9 374.4 135.6C373.8 135.4 373.4 135 373 134.6C372.6 134.2 372.4 133.7 372.2 133C372 132.4 371.9 131.7 371.9 131C371.9 129.9 372 128.7 372.3 127.7C372.6 126.6 373 125.7 373.6 124.8C374.2 124 374.9 123.3 375.7 122.8C376.5 122.3 377.5 122 378.6 122C379.3 122 380 122.1 380.6 122.4C381.2 122.6 381.6 123 382 123.4C382.4 123.8 382.6 124.4 382.8 125C383 125.6 383.1 126.3 383.1 127C383.1 128.2 382.9 129.3 382.6 130.4C382.3 131.5 381.9 132.4 381.3 133.2C380.7 134 380 134.7 379.2 135.2C378.5 135.8 377.5 136 376.4 136ZM376.6 134.4C377.3 134.4 378 134.2 378.6 133.8C379.2 133.4 379.6 132.8 380 132.1C380.4 131.4 380.7 130.6 380.9 129.8C381.1 128.9 381.2 128.1 381.2 127.2C381.2 126.2 381 125.4 380.6 124.8C380.2 124.2 379.5 123.9 378.6 123.9C377.9 123.9 377.2 124.1 376.6 124.5C376 124.9 375.5 125.5 375.2 126.2C374.8 126.9 374.5 127.7 374.3 128.5C374.1 129.4 374 130.2 374 131.1C374 132.1 374.2 133 374.6 133.5C375.1 134.1 375.7 134.4 376.6 134.4Z" fill="#154889"/>
<path d="M395.7 122.4H402.8C402.8 123 402.7 123.5 402.5 124.1H397.3L396.6 127.9H400.7C400.7 128.5 400.6 129 400.4 129.6H396.3C396.2 130.4 396 131.1 395.9 131.9C395.8 132.7 395.6 133.4 395.5 134.2H400.8C400.8 134.5 400.7 134.8 400.7 135C400.7 135.2 400.6 135.5 400.5 135.8H393.3L395.7 122.4Z" fill="#154889"/>
<path d="M403 133.8C403.5 134 403.9 134.1 404.4 134.2C404.8 134.3 405.3 134.4 405.9 134.4C407 134.4 407.8 134.2 408.3 133.7C408.9 133.2 409.2 132.6 409.2 131.8C409.2 131.3 409 130.9 408.7 130.5C408.4 130.1 407.9 129.8 407.2 129.4C406.8 129.2 406.4 128.9 406.1 128.7C405.8 128.5 405.5 128.2 405.2 128C405 127.7 404.8 127.4 404.6 127.1C404.5 126.8 404.4 126.4 404.4 126C404.4 125.4 404.5 124.9 404.7 124.4C404.9 123.9 405.2 123.5 405.7 123.2C406.1 122.9 406.6 122.6 407.2 122.4C407.8 122.2 408.4 122.1 409.2 122.1C409.9 122.1 410.5 122.2 410.9 122.2C411.4 122.3 411.8 122.4 412.3 122.6C412.3 122.9 412.2 123.1 412.1 123.4C412 123.7 411.9 123.9 411.7 124.2C411.4 124.1 411 123.9 410.6 123.8C410.2 123.7 409.7 123.6 409.2 123.6C408.8 123.6 408.4 123.6 408.1 123.7C407.8 123.8 407.5 123.9 407.2 124C407 124.1 406.8 124.3 406.6 124.6C406.5 124.8 406.4 125.1 406.4 125.5C406.4 126 406.5 126.4 406.8 126.7C407.1 127 407.6 127.4 408.2 127.7C408.7 127.9 409.1 128.2 409.4 128.4C409.8 128.6 410.1 128.9 410.3 129.2C410.6 129.5 410.8 129.8 410.9 130.1C411 130.4 411.1 130.8 411.1 131.3C411.1 132 411 132.6 410.7 133.2C410.4 133.8 410.1 134.2 409.6 134.6C409.1 135 408.6 135.3 407.9 135.5C407.2 135.7 406.5 135.8 405.6 135.8C404.9 135.8 404.3 135.7 403.8 135.6C403.3 135.5 402.7 135.4 402.3 135.2C402.5 134.9 402.7 134.3 403 133.8Z" fill="#154889"/>
<path d="M417 124H413.7C413.7 123.7 413.7 123.5 413.8 123.2C413.8 122.9 413.9 122.6 414 122.4H422.6C422.6 122.7 422.6 123 422.5 123.2C422.4 123.5 422.4 123.7 422.3 124H419L416.9 135.8C416.6 135.8 416.2 135.9 415.9 135.9C415.7 135.9 415.6 135.9 415.4 135.9C415.2 135.9 415.1 135.9 415 135.9L417 124Z" fill="#154889"/>
<path d="M425.8 122.4C426 122.4 426.2 122.4 426.4 122.4C426.6 122.4 426.8 122.4 427 122.4C427.2 122.4 427.4 122.4 427.6 122.4C427.8 122.4 428 122.4 428.1 122.4L429.9 135.8C429.5 135.8 429.2 135.9 428.8 135.9C428.5 135.9 428.2 135.9 427.9 135.8L427.5 132.6H423L421.6 135.8C421.3 135.8 421 135.9 420.6 135.9C420.4 135.9 420.3 135.9 420.1 135.9C419.9 135.9 419.8 135.9 419.6 135.9L425.8 122.4ZM427.4 131L426.6 124.5L423.8 131H427.4Z" fill="#154889"/>
<path d="M434.4 122.4C434.6 122.4 434.8 122.4 435.1 122.3C435.3 122.3 435.6 122.3 435.9 122.2C436.2 122.2 436.4 122.2 436.7 122.2C436.9 122.2 437.2 122.2 437.4 122.2C438.4 122.2 439.3 122.3 440.1 122.6C440.9 122.9 441.5 123.2 442 123.7C442.5 124.2 442.8 124.8 443.1 125.4C443.3 126.1 443.4 126.8 443.4 127.6C443.4 128.8 443.2 129.9 442.9 130.9C442.6 131.9 442 132.8 441.4 133.6C440.7 134.4 439.9 135 438.9 135.4C437.9 135.8 436.7 136 435.4 136C434.7 136 434.1 136 433.6 135.9C433 135.9 432.6 135.8 432.2 135.7L434.4 122.4ZM434.3 134.2C434.5 134.2 434.7 134.2 435 134.3C435.3 134.3 435.6 134.3 435.9 134.3C436.8 134.3 437.5 134.1 438.2 133.8C438.9 133.5 439.5 133 439.9 132.5C440.4 131.9 440.7 131.2 441 130.5C441.2 129.7 441.4 128.9 441.4 127.9C441.4 126.6 441.1 125.6 440.5 124.9C439.9 124.2 438.9 123.9 437.5 123.9C437.3 123.9 437 123.9 436.8 123.9C436.6 123.9 436.4 123.9 436.2 124L434.3 134.2Z" fill="#154889"/>
<path d="M449.7 136C449 136 448.3 135.9 447.7 135.6C447.1 135.4 446.7 135 446.3 134.6C445.9 134.2 445.7 133.7 445.5 133C445.3 132.4 445.2 131.7 445.2 131C445.2 129.9 445.3 128.7 445.6 127.7C445.9 126.6 446.3 125.7 446.9 124.8C447.5 124 448.2 123.3 449 122.8C449.8 122.3 450.8 122 451.9 122C452.6 122 453.3 122.1 453.9 122.4C454.5 122.6 454.9 123 455.3 123.4C455.7 123.8 455.9 124.4 456.1 125C456.3 125.6 456.4 126.3 456.4 127C456.4 128.2 456.2 129.3 455.9 130.4C455.6 131.5 455.2 132.4 454.6 133.2C454 134 453.3 134.7 452.5 135.2C451.8 135.8 450.8 136 449.7 136ZM449.9 134.4C450.6 134.4 451.3 134.2 451.9 133.8C452.5 133.4 452.9 132.8 453.3 132.1C453.7 131.4 454 130.6 454.2 129.8C454.4 128.9 454.5 128.1 454.5 127.2C454.5 126.2 454.3 125.4 453.9 124.8C453.5 124.2 452.8 123.9 451.9 123.9C451.2 123.9 450.5 124.1 449.9 124.5C449.3 124.9 448.8 125.5 448.5 126.2C448.1 126.9 447.8 127.7 447.6 128.5C447.4 129.4 447.3 130.2 447.3 131.1C447.3 132.1 447.5 133 447.9 133.5C448.3 134.1 449 134.4 449.9 134.4Z" fill="#154889"/>
<path d="M469 122.4C469.2 122.4 469.4 122.4 469.7 122.3C469.9 122.3 470.2 122.3 470.5 122.2C470.8 122.2 471 122.2 471.3 122.2C471.5 122.2 471.8 122.2 472 122.2C473 122.2 473.9 122.3 474.7 122.6C475.5 122.9 476.1 123.2 476.6 123.7C477.1 124.2 477.4 124.8 477.7 125.4C477.9 126.1 478 126.8 478 127.6C478 128.8 477.8 129.9 477.5 130.9C477.2 131.9 476.6 132.8 476 133.6C475.3 134.4 474.5 135 473.5 135.4C472.5 135.8 471.3 136 470 136C469.3 136 468.7 136 468.2 135.9C467.6 135.9 467.2 135.8 466.8 135.7L469 122.4ZM468.8 134.2C469 134.2 469.2 134.2 469.5 134.3C469.8 134.3 470.1 134.3 470.4 134.3C471.3 134.3 472 134.1 472.7 133.8C473.4 133.5 474 133 474.4 132.5C474.9 131.9 475.2 131.2 475.5 130.5C475.7 129.7 475.9 128.9 475.9 127.9C475.9 126.6 475.6 125.6 475 124.9C474.4 124.2 473.4 123.9 472 123.9C471.8 123.9 471.5 123.9 471.3 123.9C471.1 123.9 470.9 123.9 470.7 124L468.8 134.2Z" fill="#154889"/>
<path d="M484.3 136C483.6 136 482.9 135.9 482.3 135.6C481.7 135.4 481.3 135 480.9 134.6C480.5 134.2 480.3 133.7 480.1 133C479.9 132.4 479.8 131.7 479.8 131C479.8 129.9 479.9 128.7 480.2 127.7C480.5 126.6 480.9 125.7 481.5 124.8C482.1 124 482.8 123.3 483.6 122.8C484.4 122.3 485.4 122 486.5 122C487.2 122 487.9 122.1 488.5 122.4C489.1 122.6 489.5 123 489.9 123.4C490.3 123.8 490.5 124.4 490.7 125C490.9 125.6 491 126.3 491 127C491 128.2 490.8 129.3 490.5 130.4C490.2 131.5 489.8 132.4 489.2 133.2C488.6 134 487.9 134.7 487.1 135.2C486.3 135.8 485.4 136 484.3 136ZM484.5 134.4C485.2 134.4 485.9 134.2 486.5 133.8C487.1 133.4 487.5 132.8 487.9 132.1C488.3 131.4 488.6 130.6 488.8 129.8C489 128.9 489.1 128.1 489.1 127.2C489.1 126.2 488.9 125.4 488.5 124.8C488.1 124.2 487.4 123.9 486.5 123.9C485.8 123.9 485.1 124.1 484.5 124.5C483.9 124.9 483.4 125.5 483.1 126.2C482.7 126.9 482.4 127.7 482.2 128.5C482 129.4 481.9 130.2 481.9 131.1C481.9 132.1 482.1 133 482.5 133.5C482.9 134.1 483.6 134.4 484.5 134.4Z" fill="#154889"/>
<path d="M506.3 122.4C506.5 122.4 506.7 122.4 506.9 122.4C507.1 122.4 507.3 122.4 507.5 122.4C507.7 122.4 507.9 122.4 508.1 122.4C508.3 122.4 508.5 122.4 508.6 122.4L510.4 135.8C510 135.8 509.7 135.9 509.3 135.9C509 135.9 508.7 135.9 508.4 135.8L508 132.6H503.5L502.1 135.8C501.8 135.8 501.5 135.9 501.1 135.9C500.9 135.9 500.8 135.9 500.6 135.9C500.4 135.9 500.3 135.9 500.1 135.9L506.3 122.4ZM507.8 131L507 124.5L504.2 131H507.8Z" fill="#154889"/>
<path d="M515.2 122.4C515.4 122.4 515.5 122.4 515.7 122.3C515.9 122.3 516.1 122.3 516.3 122.3C516.5 122.3 516.6 122.3 516.8 122.3C517 122.3 517.1 122.3 517.3 122.4L519.1 130.7L523.9 122.4C524 122.4 524.2 122.4 524.4 122.3C524.6 122.3 524.8 122.3 524.9 122.3C525.1 122.3 525.2 122.3 525.4 122.3C525.6 122.3 525.7 122.3 525.9 122.4L524.2 135.8C524 135.8 523.9 135.8 523.7 135.9C523.5 135.9 523.4 135.9 523.2 135.9C523 135.9 522.9 135.9 522.7 135.9C522.6 135.9 522.4 135.9 522.3 135.8L523.7 125.6L519.4 133C519.1 133 518.9 133.1 518.6 133.1C518.4 133.1 518.1 133.1 517.9 133L516.2 125.5L514 135.8C513.9 135.8 513.7 135.8 513.6 135.9C513.5 135.9 513.3 135.9 513.1 135.9C513 135.9 512.8 135.9 512.7 135.9C512.6 135.9 512.4 135.9 512.3 135.8L515.2 122.4Z" fill="#154889"/>
<path d="M532.6 122.4C532.8 122.4 533 122.4 533.2 122.4C533.4 122.4 533.6 122.4 533.8 122.4C534 122.4 534.2 122.4 534.4 122.4C534.6 122.4 534.8 122.4 534.9 122.4L536.7 135.8C536.3 135.8 536 135.9 535.6 135.9C535.3 135.9 535 135.9 534.7 135.8L534.3 132.6H529.8L528.4 135.8C528.1 135.8 527.8 135.9 527.4 135.9C527.2 135.9 527.1 135.9 526.9 135.9C526.7 135.9 526.6 135.9 526.4 135.9L532.6 122.4ZM534.1 131L533.3 124.5L530.5 131H534.1Z" fill="#154889"/>
<path d="M541.2 122.4C541.6 122.3 542 122.3 542.5 122.3C543 122.3 543.5 122.2 543.9 122.2C544.5 122.2 545.1 122.3 545.6 122.4C546.1 122.5 546.6 122.7 547.1 123C547.5 123.3 547.9 123.6 548.1 124.1C548.4 124.6 548.5 125.1 548.5 125.8C548.5 126.6 548.4 127.4 548.1 128C547.8 128.6 547.4 129.2 546.9 129.6C546.4 130 545.8 130.4 545.1 130.6C544.4 130.8 543.7 130.9 542.9 130.9C542.4 130.9 542 130.9 541.6 130.8L540.7 135.7C540.4 135.7 540.1 135.8 539.7 135.8C539.4 135.8 539.1 135.8 538.8 135.7L541.2 122.4ZM541.9 129.3C542.1 129.3 542.2 129.3 542.4 129.4C542.6 129.4 542.8 129.4 543 129.4C543.5 129.4 544 129.3 544.4 129.2C544.8 129.1 545.2 128.9 545.5 128.6C545.8 128.3 546.1 128 546.2 127.6C546.4 127.2 546.5 126.7 546.5 126.1C546.5 125.3 546.3 124.7 545.8 124.4C545.3 124.1 544.7 123.9 543.9 123.9C543.7 123.9 543.6 123.9 543.4 123.9C543.2 123.9 543.1 123.9 542.9 124L541.9 129.3Z" fill="#154889"/>
<path d="M553.3 122.4C553.5 122.4 553.7 122.4 553.9 122.4C554.1 122.4 554.3 122.4 554.5 122.4C554.7 122.4 554.9 122.4 555.1 122.4C555.3 122.4 555.5 122.4 555.6 122.4L557.4 135.8C557 135.8 556.7 135.9 556.3 135.9C556 135.9 555.7 135.9 555.4 135.8L555 132.6H550.5L549.1 135.8C548.8 135.8 548.5 135.9 548.1 135.9C547.9 135.9 547.8 135.9 547.6 135.9C547.4 135.9 547.3 135.9 547.1 135.9L553.3 122.4ZM554.9 131L554.1 124.5L551.3 131H554.9ZM555.3 119.2C555.4 119.2 555.6 119.2 555.8 119.1C556 119.1 556.2 119.1 556.4 119.1C556.6 119.1 556.9 119.1 557.1 119.1C557.3 119.1 557.5 119.1 557.7 119.2L555 121.3C554.9 121.3 554.7 121.3 554.5 121.3C554.3 121.3 554.1 121.3 553.9 121.3C553.7 121.3 553.6 121.3 553.4 121.3C553.2 121.3 553.1 121.3 553 121.2L555.3 119.2Z" fill="#154889"/>
<path d="M75.2058 45.9C74.5058 45.9 73.8058 46 73.1058 46C55.6058 46 44.1058 46 26.6058 46C24.9058 46 24.4058 46.4 24.4058 48.1C24.5058 55.2 24.5058 62.4 24.4058 69.5C24.4058 70.9 24.8058 71.2 26.1058 71.2C37.1058 71.1 42.2058 71.2 53.1058 71.1C54.7058 71.1 55.0058 71.5 55.0058 73.1C54.9058 87.2 55.0058 101.3 54.9058 115.4C54.9058 116.9 55.3058 117.3 56.8058 117.2C63.1058 117.1 69.4058 117.1 75.7058 117.2C77.0058 117.2 77.3058 116.8 77.3058 115.6C77.2058 111.5 77.3058 107.3 77.3058 103.2C77.3058 102.5 77.4058 101.8 77.5058 101.1C78.3058 101.2 78.3058 101.9 78.6058 102.4C82.5058 110 87.4058 116.8 93.6058 122.6C96.8058 125.6 100.206 128.3 103.806 130.7C104.306 131 105.106 131.1 105.006 132C104.206 132 103.406 132.1 102.506 132.1C67.7058 132.1 53.3058 132.1 18.5058 132.1C5.00578 132.5 0.00577994 130.1 0.00577994 119.5C0.00577994 79.1 0.00577994 67.4 0.00577994 27C-0.19422 13.2 4.80578 12.4 13.5058 12.4C56.5058 12.5 77.5058 12.4 108.806 12.4C109.006 12.4 109.706 12.4 109.906 12.4C109.806 13.4 108.406 13.6 107.806 14C101.506 17.6 95.9058 22 90.9058 27.2C84.6058 33.8 79.9058 35.5 76.4058 43.9C76.1058 44.6 75.8058 45.4 75.2058 45.9Z" fill="#154889"/>
<path d="M104.806 132.1C95.6058 126.2 87.8058 118.7 81.9058 109.4C80.2058 106.8 78.7058 104 77.4058 101.2C77.1058 99.1 77.3058 97.1 77.3058 95C77.3058 87.6 77.3058 80.3 77.3058 72.9C77.3058 71.6 77.7058 71.2 79.0058 71.2C85.5058 71.3 92.1058 71.3 98.6058 71.2C100.006 71.2 100.306 71.7 100.406 73C101.106 92.8 117.006 110.1 136.706 112.7C138.806 113 139.506 113.1 141.506 113C144.006 112.9 144.406 113.6 144.406 115.5C144.306 123.6 144.306 127.9 144.406 136C144.406 140.8 144.106 142.2 138.906 142.1C129.306 142.9 120.606 140.3 110.506 135.1C108.406 134.3 106.706 133.1 104.806 132.1Z" fill="#E8C830"/>
<path d="M75.2058 45.9C81.4058 29.3 92.4058 16.7 107.706 7.8C108.306 7.5 108.906 7.1 109.506 6.7C113.306 5 114.106 4.40001 117.806 3.10001C123.206 0.800006 131.806 0.1 140.506 0C143.006 0 144.406 0.900006 144.306 4.60001C144.206 12.7 144.206 16.5 144.206 24.6C144.206 27.5 143.306 28.2 140.306 28.2C126.606 28.4 117.706 33.9 109.106 44.6C108.506 45.3 108.106 46 107.006 46C96.5058 45.9 85.9058 45.9 75.2058 45.9Z" fill="#E8C830"/>
</svg>
